<svg width="60" height="60" viewBox="0 0 60 60" fill="none" xmlns="http://www.w3.org/2000/svg">
<g clip-path="url(#clip0_35_106)">
<path d="M51.1223 51.1234H42.2322V37.2009C42.2322 33.8809 42.173 29.6071 37.6085 29.6071C32.9782 29.6071 32.2697 33.2245 32.2697 36.9592V51.1225H23.3798V22.4922H31.9141V26.4049H32.0337C32.8877 24.9445 34.1219 23.7431 35.6048 22.9286C37.0876 22.1142 38.7636 21.7172 40.4543 21.7799C49.4648 21.7799 51.1261 27.7068 51.1261 35.4173L51.1223 51.1234ZM13.3486 18.5788C10.4993 18.5793 8.18904 16.2698 8.18857 13.4205C8.18811 10.5712 10.4974 8.26095 13.3467 8.26048C16.196 8.25978 18.5062 10.5693 18.5067 13.4186C18.5069 14.7869 17.9637 16.0992 16.9963 17.067C16.029 18.0347 14.7169 18.5785 13.3486 18.5788ZM17.7937 51.1237H8.89428V22.4922H17.7935V51.1234L17.7937 51.1237ZM55.5544 0.00415323H4.42709C2.01068 -0.0230343 0.029043 1.91267 -0.000488281 4.32907V55.6696C0.0281055 58.0872 2.00951 60.0248 4.42686 59.9995H55.5544C57.9769 60.0295 59.966 58.0919 59.9995 55.6696V4.32509C59.9651 1.904 57.9757 -0.0314718 55.5544 0.000168852" fill="#0A66C2"/>
</g>
<defs>
<clipPath id="clip0_35_106">
<rect width="60" height="60" fill="white"/>
</clipPath>
</defs>
</svg>
